<svg t="1626421501714" class="icon" viewBox="0 0 1024 1024" version="1.1" xmlns="http://www.w3.org/2000/svg" p-id="1176" width="200" height="200">
	<path d="M746.666667 512a234.666667 234.666667 0 1 1 0 469.333333 234.666667 234.666667 0 0 1 0-469.333333z m-233.685334 85.333333A276.053333 276.053333 0 0 0 469.333333 746.666667c0 69.546667 25.6 133.12 67.925334 181.845333-33.92 6.826667-70.826667 10.24-110.592 10.24-145.92 0-253.610667-45.781333-319.402667-138.112a117.333333 117.333333 0 0 1-21.76-68.096v-39.253333a95.957333 95.957333 0 0 1 95.957333-96h331.52z m120.746667 134.229334a21.333333 21.333333 0 1 0-30.122667 30.208l85.333334 85.333333a21.333333 21.333333 0 0 0 30.165333 0l170.666667-170.666667a21.333333 21.333333 0 1 0-30.165334-30.165333L704 801.834667l-70.229333-70.229334zM426.666667 85.546667a213.333333 213.333333 0 1 1 0 426.666666 213.333333 213.333333 0 0 1 0-426.666666z" p-id="1177">
	</path>
</svg>
