<svg t="1626423353419" class="icon" viewBox="0 0 1024 1024" version="1.1" xmlns="http://www.w3.org/2000/svg" p-id="7821" width="200" height="200"><path d="M422.590609 454.475131a239.786476 239.786476 0 1 0-210.101064 1.748709A319.885907 319.885907 0 0 0 0 757.12985a21.325727 21.325727 0 0 0 21.325727 21.325728H383.863089a21.325727 21.325727 0 0 0 21.325727-21.325728v-127.954363a85.302909 85.302909 0 0 1 85.302909-85.302908h40.817441a10.662864 10.662864 0 0 0 7.378702-18.382777 317.454774 317.454774 0 0 0-116.097259-71.014671zM351.874498 645.169783a31.988591 31.988591 0 1 1-63.977181 0v-70.588157a31.988591 31.988591 0 0 1 63.977181 0zM315.620762 394.592489a154.654173 154.654173 0 0 1-154.355613-154.483568A152.22304 152.22304 0 0 1 179.136108 169.563416a325.473248 325.473248 0 0 0 202.295848 70.588157A327.435215 327.435215 0 0 0 469.165997 227.910605c0.341212 4.265145 1.236892 8.018473 1.236893 12.198316A154.654173 154.654173 0 0 1 315.620762 394.592489z" p-id="7822"></path><path d="M1023.634904 661.462638a63.977181 63.977181 0 0 0-63.977182-63.977181h-74.640045a21.325727 21.325727 0 0 1-21.325727-21.325727V554.834003a74.725348 74.725348 0 0 0-74.640045-74.640046h-85.302909A74.725348 74.725348 0 0 0 629.108951 554.834003v21.325727a21.325727 21.325727 0 0 1-21.325727 21.325727H533.143179a63.977181 63.977181 0 0 0-63.977182 63.977181v298.560181a63.977181 63.977181 0 0 0 63.977182 63.977181h426.514543a63.977181 63.977181 0 0 0 63.977182-63.977181zM693.086133 554.834003a10.705515 10.705515 0 0 1 10.662863-10.662864h85.302909a10.705515 10.705515 0 0 1 10.662863 10.662864v21.325727a21.325727 21.325727 0 0 1-21.325727 21.325727h-63.977181a21.325727 21.325727 0 0 1-21.325727-21.325727zM853.029086 842.731319a10.662864 10.662864 0 0 1-10.662863 10.662864H810.377632a21.325727 21.325727 0 0 0-21.325727 21.325727v31.988591a10.662864 10.662864 0 0 1-10.662864 10.662863h-63.977181a10.662864 10.662864 0 0 1-10.662864-10.662863v-31.988591a21.325727 21.325727 0 0 0-21.325727-21.325727h-31.988591a10.662864 10.662864 0 0 1-10.662863-10.662864v-63.977181a10.662864 10.662864 0 0 1 10.662863-10.662864H682.423269a21.325727 21.325727 0 0 0 21.325727-21.325727v-31.988591a10.662864 10.662864 0 0 1 10.662864-10.662863h63.977181a10.662864 10.662864 0 0 1 10.662864 10.662863v31.988591a21.325727 21.325727 0 0 0 21.325727 21.325727h31.988591a10.662864 10.662864 0 0 1 10.662863 10.662864z" p-id="7823"></path></svg>