<svg t="1626423774827" class="icon" viewBox="0 0 1024 1024" version="1.1" xmlns="http://www.w3.org/2000/svg" p-id="12574" width="200" height="200"><path d="M959.471491 85.286355a63.964766 63.964766 0 0 1 63.666264 57.824148L1023.436257 149.251121V511.718129a42.643177 42.643177 0 0 1-84.987852 4.989251L938.149902 511.718129V170.57271H85.286355v682.290838h426.431774a42.643177 42.643177 0 0 1 42.344675 37.653925L554.361306 895.506725a42.643177 42.643177 0 0 1-37.653926 42.344675L511.718129 938.149902H63.964766a63.964766 63.964766 0 0 1-63.666264-57.824148L0 874.185136v-724.934015a63.964766 63.964766 0 0 1 57.824149-63.666264L63.964766 85.286355h895.506725z" p-id="12575"></path><path d="M561.141571 266.391929a42.643177 42.643177 0 0 1 7.24934 55.947849l-3.240881 4.264318L477.731516 426.431774H533.039717a42.643177 42.643177 0 0 1 4.989252 84.987852L533.039717 511.718129H426.431774v85.286354h85.286355a42.643177 42.643177 0 0 1 4.989251 84.987853L511.718129 682.290838h-85.286355v42.643178a42.643177 42.643177 0 0 1-84.987853 4.989251L341.145419 724.934016v-42.643178H255.859064a42.643177 42.643177 0 0 1-4.989251-84.987852L255.859064 597.004483h85.286355v-85.286354H234.537476a42.643177 42.643177 0 0 1-4.989252-84.987853L234.537476 426.431774h55.265557L202.427163 326.604096a42.643177 42.643177 0 0 1 60.425382-59.998951l3.795243 3.837886L383.788596 404.257322l117.140809-133.899577a42.643177 42.643177 0 0 1 60.212166-4.008459z" p-id="12576"></path><path d="M810.22037 639.647661a170.57271 170.57271 0 0 1 146.94839 257.223646l53.730403 53.730403a42.643177 42.643177 0 0 1-56.246351 63.922123l-4.008459-3.582027-53.815689-53.730403A170.57271 170.57271 0 1 1 810.22037 639.647661z m0 85.286355a85.286355 85.286355 0 1 0 0 170.572709 85.286355 85.286355 0 0 0 0-170.572709z" p-id="12577"></path></svg>